<?xml version="1.0" standalone="no"?>
<!DOCTYPE svg PUBLIC "-//W3C//DTD SVG 20010904//EN"
 "http://www.w3.org/TR/2001/REC-SVG-20010904/DTD/svg10.dtd">
<svg version="1.0" xmlns="http://www.w3.org/2000/svg"
 width="500.000000pt" height="500.000000pt" viewBox="0 0 500.000000 500.000000"
 preserveAspectRatio="xMidYMid meet">

<g transform="translate(0.000000,500.000000) scale(0.100000,-0.100000)"
fill="#000000" stroke="none">
<path d="M2468 3333 c-14 -16 -114 -146 -222 -291 -186 -248 -199 -263 -224
-258 -15 3 -198 37 -407 76 -209 38 -463 85 -565 104 -102 19 -201 36 -221 37
-35 3 -69 -13 -69 -33 0 -5 96 -192 214 -416 117 -224 268 -513 336 -642 68
-129 130 -243 138 -252 14 -17 77 -18 1062 -18 822 0 1049 3 1062 13 8 6 69
118 135 247 66 129 210 408 318 620 241 468 230 442 207 469 l-17 20 -595
-119 c-327 -66 -604 -122 -616 -125 -18 -4 -55 40 -243 289 -122 162 -229 297
-237 300 -24 9 -29 8 -56 -21z m-1083 -685 c835 -389 1015 -473 1015 -478 0
-6 -883 -420 -896 -420 -7 0 -578 1070 -592 1110 -2 5 29 -6 70 -25 40 -18
222 -103 403 -187z m2459 -290 c-141 -276 -271 -528 -288 -559 l-31 -55 -452
210 c-249 116 -452 213 -453 216 0 3 130 66 288 140 158 74 490 229 737 346
248 116 451 210 453 208 2 -1 -112 -229 -254 -506z m-2456 457 c247 -45 561
-104 584 -111 15 -4 6 -21 -48 -92 -36 -48 -69 -86 -73 -85 -11 3 -630 292
-659 308 -39 21 -23 19 196 -20z m2430 20 c-10 -10 -641 -305 -652 -305 -12 0
-116 133 -116 148 0 5 168 43 373 85 377 76 404 81 395 72z m-892 -907 l411
-193 -408 -3 c-224 -1 -595 -1 -824 0 l-416 3 403 191 c222 106 407 192 413
193 5 1 195 -86 421 -191z"/>
<path d="M1790 1150 l0 -183 83 5 c145 8 199 52 205 168 6 124 -55 180 -205
188 l-83 5 0 -183z m216 97 c31 -33 34 -42 34 -97 0 -55 -3 -64 -34 -97 -32
-35 -38 -37 -105 -41 l-71 -4 0 142 0 142 71 -4 c67 -4 73 -6 105 -41z"/>
<path d="M2890 1320 c-18 -11 -4 -42 17 -38 10 2 19 10 21 19 4 19 -19 31 -38
19z"/>
<path d="M2220 1223 c-80 -29 -101 -161 -36 -222 32 -30 102 -39 143 -18 80
42 82 191 2 232 -28 15 -80 18 -109 8z m97 -38 c47 -33 47 -137 0 -170 -58
-41 -137 8 -137 85 0 77 79 126 137 85z"/>
<path d="M2509 1216 c-32 -18 -59 -72 -59 -116 0 -46 28 -99 63 -117 54 -27
165 1 143 36 -5 8 -14 7 -29 -4 -27 -19 -76 -19 -104 0 -50 35 -50 135 0 170
28 19 77 19 104 0 15 -11 24 -12 29 -4 21 35 -97 63 -147 35z"/>
<path d="M2890 1100 c0 -109 2 -130 15 -130 13 0 15 21 15 130 0 109 -2 130
-15 130 -13 0 -15 -21 -15 -130z"/>
<path d="M3010 1100 c0 -109 2 -130 15 -130 12 0 15 17 15 94 0 90 1 96 26
115 32 25 76 27 98 5 12 -12 16 -38 16 -115 0 -94 1 -99 21 -99 21 0 21 4 17
109 -3 90 -7 113 -22 130 -25 27 -80 28 -123 1 -33 -20 -33 -20 -33 0 0 11 -7
20 -15 20 -13 0 -15 -21 -15 -130z"/>
<path d="M2700 1095 c0 -12 14 -15 65 -15 51 0 65 3 65 15 0 12 -14 15 -65 15
-51 0 -65 -3 -65 -15z"/>
</g>
</svg>
